# xmcd CD database file
#
# Track frame offsets:
#	150
#	16170
#	32406
#	49648
#	63390
#	77300
#	89926
#	120385
#	138852
#	159930
#	177990
#	195016
#
# Disc length: 2853 seconds
#
# Revision: 2
# Processed by: cddbd v1.4PL0 Copyright (c) Steve Scherf et al.
# Submitted via: CDex 1.51
#
DISCID=830b230c
DTITLE=Louie Jerger and Marc Turner - Blue Louie
DYEAR=1997
DGENRE=Blues
TTITLE0=Spank the Monkey
TTITLE1=Middle of the Night
TTITLE2=Under the Gun
TTITLE3=Walking With You
TTITLE4=Road Thru Hell
TTITLE5=Weeble Walkin
TTITLE6=One More Day
TTITLE7=Down to Mexico
TTITLE8=Little Boy Blue
TTITLE9=I Need a Woman
TTITLE10=New Orleans
TTITLE11=Born in a Graveyard
EXTD=YEAR: 1997
EXTT0=
EXTT1=
EXTT2=
EXTT3=
EXTT4=
EXTT5=
EXTT6=
EXTT7=
EXTT8=
EXTT9=
EXTT10=
EXTT11=
PLAYORDER=
